<?xml version="1.0" encoding="UTF-8" standalone="no"?>
<svg width="32" height="32" viewBox="0 0 32 32" fill="none" xmlns="http://www.w3.org/2000/svg">
  <!-- Base Heart Shape -->
  <path d="M16 28C16 28 3 20 3 11C3 7 6 4 10 4C13 4 15 6 16 8C17 6 19 4 22 4C26 4 29 7 29 11C29 20 16 28 16 28Z" 
        fill="#7C3AED" /> <!-- Purple-600 from Tailwind -->
  
  <!-- Inner Glow -->
  <path d="M16 26C16 26 5 19 5 11.5C5 8.5 7.5 6 10.5 6C12.8 6 14.3 7.4 15 9C15.7 7.4 17.2 6 19.5 6C22.5 6 25 8.5 25 11.5C25 19 16 26 16 26Z" 
        fill="#9F7AEA" /> <!-- Purple-400 from Tailwind -->
  
  <!-- Cross Overlay -->
  <path d="M16 12V20M12 16H20" 
        stroke="white" 
        stroke-width="2" 
        stroke-linecap="round" 
        stroke-linejoin="round"/>
</svg>